<?xml version="1.0" encoding="utf-8"?>
<!-- Generator: Adobe Illustrator 16.0.0, SVG Export Plug-In . SVG Version: 6.00 Build 0)  -->
<!DOCTYPE svg PUBLIC "-//W3C//DTD SVG 1.1//EN" "http://www.w3.org/Graphics/SVG/1.1/DTD/svg11.dtd">
<svg version="1.1" id="Layer_1" focusable="false" xmlns="http://www.w3.org/2000/svg" xmlns:xlink="http://www.w3.org/1999/xlink"
	 x="0px" y="0px" width="120px" height="120px" viewBox="0 0 120 120" enable-background="new 0 0 120 120" xml:space="preserve">
<path fill="#0F386C" d="M102,54c-8.287,0-15,6.713-15,15s6.713,15,15,15s15-6.713,15-15S110.287,54,102,54z M102,78
	c-4.969,0-9-4.031-9-9s4.031-9,9-9s9,4.031,9,9S106.969,78,102,78z M45,69c0,8.287,6.712,15,15,15c8.287,0,15-6.713,15-15
	s-6.713-15-15-15C51.712,54,45,60.713,45,69z M69,69c0,4.969-4.031,9-9,9s-9-4.031-9-9s4.031-9,9-9S69,64.031,69,69z M18,84
	c8.288,0,15-6.713,15-15s-6.712-15-15-15S3,60.713,3,69S9.712,84,18,84z M18,60c4.969,0,9,4.031,9,9s-4.031,9-9,9s-9-4.031-9-9
	S13.031,60,18,60z M105.75,90h-7.5C90.394,90,84,96.731,84,105c0,1.65,1.35,3,3,3s3-1.35,3-3c0-4.969,3.713-9,8.25-9h7.5
	c4.537,0,8.25,4.031,8.25,9c0,1.65,1.35,3,3,3s3-1.35,3-3C120,96.731,113.606,90,105.75,90z M21.75,90h-7.5C6.394,90,0,96.731,0,105
	c0,1.65,1.35,3,3,3s3-1.35,3-3c0-4.969,3.712-9,8.25-9h7.5c4.538,0,8.25,4.031,8.25,9c0,1.65,1.35,3,3,3s3-1.35,3-3
	C36,96.731,29.606,90,21.75,90z M63.75,90h-7.5C48.394,90,42,96.731,42,105c0,1.65,1.35,3,3,3s3-1.35,3-3c0-4.969,3.712-9,8.25-9
	h7.5c4.537,0,8.25,4.031,8.25,9c0,1.65,1.35,3,3,3s3-1.35,3-3C78,96.731,71.606,90,63.75,90z M12,21c0-1.656,1.348-3,3-3h90
	c1.652,0,3,1.344,3,3v27.979c2.158,0.649,4.194,1.568,6,2.833V21c0-4.963-4.037-9-9-9H15c-4.963,0-9,4.037-9,9v30.812
	c1.806-1.266,3.842-2.183,6-2.833V21z"/>
</svg>
