<?xml version="1.0" encoding="utf-8"?>
<!-- Generator: Adobe Illustrator 16.0.0, SVG Export Plug-In . SVG Version: 6.00 Build 0)  -->
<!DOCTYPE svg PUBLIC "-//W3C//DTD SVG 1.1//EN" "http://www.w3.org/Graphics/SVG/1.1/DTD/svg11.dtd">
<svg version="1.1" id="Layer_1" focusable="false" xmlns="http://www.w3.org/2000/svg" xmlns:xlink="http://www.w3.org/1999/xlink"
	 x="0px" y="0px" width="340px" height="260px" viewBox="-36.5 0 340 260" enable-background="new -36.5 0 340 260"
	 xml:space="preserve">
<path display="none" fill="#0F376B" d="M222.375,32.5H198V6.094C198,2.742,195.258,0,191.906,0h-4.062
	c-3.352,0-6.094,2.742-6.094,6.094V32.5h-97.5V6.094C84.25,2.742,81.508,0,78.156,0h-4.062C70.742,0,68,2.742,68,6.094V32.5H43.625
	c-13.457,0-24.375,10.918-24.375,24.375v178.75C19.25,249.082,30.168,260,43.625,260h178.75c13.457,0,24.375-10.918,24.375-24.375
	V56.875C246.75,43.418,235.832,32.5,222.375,32.5z M43.625,48.75h178.75c4.469,0,8.125,3.656,8.125,8.125V81.25h-195V56.875
	C35.5,52.406,39.156,48.75,43.625,48.75z M222.375,243.75H43.625c-4.469,0-8.125-3.656-8.125-8.125V97.5h195v138.125
	C230.5,240.094,226.844,243.75,222.375,243.75z M94.406,162.5H74.094c-3.352,0-6.094-2.742-6.094-6.094v-20.312
	c0-3.352,2.742-6.094,6.094-6.094h20.312c3.352,0,6.094,2.742,6.094,6.094v20.312C100.5,159.758,97.758,162.5,94.406,162.5z
	 M143.156,162.5h-20.312c-3.352,0-6.094-2.742-6.094-6.094v-20.312c0-3.352,2.742-6.094,6.094-6.094h20.312
	c3.352,0,6.094,2.742,6.094,6.094v20.312C149.25,159.758,146.508,162.5,143.156,162.5z M191.906,162.5h-20.312
	c-3.352,0-6.094-2.742-6.094-6.094v-20.312c0-3.352,2.742-6.094,6.094-6.094h20.312c3.352,0,6.094,2.742,6.094,6.094v20.312
	C198,159.758,195.258,162.5,191.906,162.5z M143.156,211.25h-20.312c-3.352,0-6.094-2.742-6.094-6.094v-20.312
	c0-3.352,2.742-6.094,6.094-6.094h20.312c3.352,0,6.094,2.742,6.094,6.094v20.312C149.25,208.508,146.508,211.25,143.156,211.25z
	 M94.406,211.25H74.094c-3.352,0-6.094-2.742-6.094-6.094v-20.312c0-3.352,2.742-6.094,6.094-6.094h20.312
	c3.352,0,6.094,2.742,6.094,6.094v20.312C100.5,208.508,97.758,211.25,94.406,211.25z M191.906,211.25h-20.312
	c-3.352,0-6.094-2.742-6.094-6.094v-20.312c0-3.352,2.742-6.094,6.094-6.094h20.312c3.352,0,6.094,2.742,6.094,6.094v20.312
	C198,208.508,195.258,211.25,191.906,211.25z"/>
<path fill="#0F376B" d="M205.281,80.25h-85.312c-3.352,0-6.094-2.742-6.094-6.094v-4.062c0-3.352,2.742-6.094,6.094-6.094h85.312
	c3.352,0,6.094,2.742,6.094,6.094v4.062C211.375,77.508,208.633,80.25,205.281,80.25z M211.375,106.656v-4.062
	c0-3.352-2.742-6.094-6.094-6.094h-85.312c-3.352,0-6.094,2.742-6.094,6.094v4.062c0,3.352,2.742,6.094,6.094,6.094h85.312
	C208.633,112.75,211.375,110.008,211.375,106.656z M244.23,242.75h1.676c3.352,0,6.094,2.742,6.094,6.094v4.062
	c0,3.352-2.742,6.094-6.094,6.094H65.125C42.68,259,24.5,240.82,24.5,218.375V39.625C24.5,17.18,42.68-1,65.125-1h174.688
	C246.566-1,252,4.434,252,11.188v186.875c0,5.078-3.148,9.445-7.566,11.273C242.605,217.512,242.199,232.492,244.23,242.75z
	 M89.5,194h146.25V15.25H89.5V194z M40.75,202.125C47.555,197.047,55.984,194,65.125,194h8.125V15.25h-8.125
	c-13.457,0-24.375,10.918-24.375,24.375V202.125z M229.809,242.75c-1.574-10.359-1.473-22.953,0-32.5H65.125
	c-32.5,0-32.5,32.5,0,32.5H229.809z"/>
</svg>
