<?xml version="1.0" encoding="utf-8"?>
<!-- Generator: Adobe Illustrator 16.0.0, SVG Export Plug-In . SVG Version: 6.00 Build 0)  -->
<!DOCTYPE svg PUBLIC "-//W3C//DTD SVG 1.1//EN" "http://www.w3.org/Graphics/SVG/1.1/DTD/svg11.dtd">
<svg version="1.1" id="Layer_1" focusable="false" xmlns="http://www.w3.org/2000/svg" xmlns:xlink="http://www.w3.org/1999/xlink"
	 x="0px" y="0px" width="260px" height="182px" viewBox="0 39 260 182" enable-background="new 0 39 260 182" xml:space="preserve">
<path fill="#FFFFFF" d="M221,117c17.956,0,32.5-14.544,32.5-32.5S238.956,52,221,52s-32.5,14.544-32.5,32.5S203.044,117,221,117z
	 M221,65c10.766,0,19.5,8.734,19.5,19.5S231.766,104,221,104s-19.5-8.734-19.5-19.5S210.234,65,221,65z M130,130
	c25.146,0,45.5-20.353,45.5-45.5S155.146,39,130,39c-25.147,0-45.5,20.353-45.5,45.5S104.853,130,130,130z M130,52
	c17.916,0,32.5,14.584,32.5,32.5S147.916,117,130,117c-17.916,0-32.5-14.584-32.5-32.5S112.084,52,130,52z M229.125,130h-16.25
	c-6.175,0-11.903,1.95-16.697,5.24c3.819,2.601,7.272,5.647,10.319,9.101c1.99-0.854,4.144-1.341,6.378-1.341h16.25
	c9.831,0,17.875,8.734,17.875,19.5c0,3.575,2.925,6.5,6.5,6.5s6.5-2.925,6.5-6.5C260,144.584,246.146,130,229.125,130z M39,117
	c17.956,0,32.5-14.544,32.5-32.5S56.956,52,39,52S6.5,66.544,6.5,84.5S21.044,117,39,117z M39,65c10.766,0,19.5,8.734,19.5,19.5
	S49.766,104,39,104s-19.5-8.734-19.5-19.5S28.234,65,39,65z M162.541,138.125C148.972,138.125,145.6,143,130,143
	c-15.6,0-18.972-4.875-32.541-4.875c-14.747,0-29.087,6.581-37.497,19.053C54.925,164.653,52,173.631,52,183.3v18.2
	c0,10.766,8.734,19.5,19.5,19.5h117c10.766,0,19.5-8.734,19.5-19.5v-18.2c0-9.669-2.925-18.646-7.963-26.122
	C191.628,144.706,177.287,138.125,162.541,138.125L162.541,138.125z M195,201.5c0,3.575-2.925,6.5-6.5,6.5h-117
	c-3.575,0-6.5-2.925-6.5-6.5v-18.2c0-6.743,1.991-13.284,5.728-18.85c5.606-8.328,15.6-13.325,26.691-13.325
	c11.131,0,15.112,4.875,32.581,4.875s21.45-4.875,32.541-4.875c11.09,0,21.084,4.997,26.69,13.325
	c3.737,5.565,5.728,12.106,5.728,18.85v18.2H195z M63.822,135.24c-4.834-3.29-10.562-5.24-16.697-5.24h-16.25
	C13.853,130,0,144.584,0,162.5c0,3.575,2.925,6.5,6.5,6.5s6.5-2.925,6.5-6.5c0-10.766,8.044-19.5,17.875-19.5h16.25
	c2.234,0,4.388,0.487,6.378,1.341C56.55,140.888,60.044,137.841,63.822,135.24z"/>
</svg>
