<?xml version="1.0" encoding="utf-8"?>
<!-- Generator: Adobe Illustrator 16.0.0, SVG Export Plug-In . SVG Version: 6.00 Build 0)  -->
<!DOCTYPE svg PUBLIC "-//W3C//DTD SVG 1.1//EN" "http://www.w3.org/Graphics/SVG/1.1/DTD/svg11.dtd">
<svg version="1.1" id="Layer_1" focusable="false" xmlns="http://www.w3.org/2000/svg" xmlns:xlink="http://www.w3.org/1999/xlink"
	 x="0px" y="0px" width="340px" height="260px" viewBox="-36.5 0 340 260" enable-background="new -36.5 0 340 260"
	 xml:space="preserve">
<path fill="#0F376B" d="M222.375,32.5H198V6.094C198,2.742,195.258,0,191.906,0h-4.062c-3.352,0-6.094,2.742-6.094,6.094V32.5h-97.5
	V6.094C84.25,2.742,81.508,0,78.156,0h-4.062C70.742,0,68,2.742,68,6.094V32.5H43.625c-13.457,0-24.375,10.918-24.375,24.375v178.75
	C19.25,249.082,30.168,260,43.625,260h178.75c13.457,0,24.375-10.918,24.375-24.375V56.875C246.75,43.418,235.832,32.5,222.375,32.5
	z M43.625,48.75h178.75c4.469,0,8.125,3.656,8.125,8.125V81.25h-195V56.875C35.5,52.406,39.156,48.75,43.625,48.75z M222.375,243.75
	H43.625c-4.469,0-8.125-3.656-8.125-8.125V97.5h195v138.125C230.5,240.094,226.844,243.75,222.375,243.75z M94.406,162.5H74.094
	c-3.352,0-6.094-2.742-6.094-6.094v-20.312c0-3.352,2.742-6.094,6.094-6.094h20.312c3.352,0,6.094,2.742,6.094,6.094v20.312
	C100.5,159.758,97.758,162.5,94.406,162.5z M143.156,162.5h-20.312c-3.352,0-6.094-2.742-6.094-6.094v-20.312
	c0-3.352,2.742-6.094,6.094-6.094h20.312c3.352,0,6.094,2.742,6.094,6.094v20.312C149.25,159.758,146.508,162.5,143.156,162.5z
	 M191.906,162.5h-20.312c-3.352,0-6.094-2.742-6.094-6.094v-20.312c0-3.352,2.742-6.094,6.094-6.094h20.312
	c3.352,0,6.094,2.742,6.094,6.094v20.312C198,159.758,195.258,162.5,191.906,162.5z M143.156,211.25h-20.312
	c-3.352,0-6.094-2.742-6.094-6.094v-20.312c0-3.352,2.742-6.094,6.094-6.094h20.312c3.352,0,6.094,2.742,6.094,6.094v20.312
	C149.25,208.508,146.508,211.25,143.156,211.25z M94.406,211.25H74.094c-3.352,0-6.094-2.742-6.094-6.094v-20.312
	c0-3.352,2.742-6.094,6.094-6.094h20.312c3.352,0,6.094,2.742,6.094,6.094v20.312C100.5,208.508,97.758,211.25,94.406,211.25z
	 M191.906,211.25h-20.312c-3.352,0-6.094-2.742-6.094-6.094v-20.312c0-3.352,2.742-6.094,6.094-6.094h20.312
	c3.352,0,6.094,2.742,6.094,6.094v20.312C198,208.508,195.258,211.25,191.906,211.25z"/>
</svg>
