<?xml version="1.0" encoding="utf-8"?>
<!-- Generator: Adobe Illustrator 16.0.0, SVG Export Plug-In . SVG Version: 6.00 Build 0)  -->
<!DOCTYPE svg PUBLIC "-//W3C//DTD SVG 1.1//EN" "http://www.w3.org/Graphics/SVG/1.1/DTD/svg11.dtd">
<svg version="1.1" id="Layer_1" focusable="false" xmlns="http://www.w3.org/2000/svg" xmlns:xlink="http://www.w3.org/1999/xlink"
	 x="0px" y="0px" width="260px" height="173.333px" viewBox="0 36.333 260 173.333" enable-background="new 0 36.333 260 173.333"
	 xml:space="preserve">
<path fill="#0F376B" d="M249.166,36.333H39.722c-5.974,0-10.833,4.86-10.833,10.833v3.611H10.833C4.85,50.778,0,55.628,0,61.611V188
	c0,11.967,9.7,21.666,21.667,21.666h227.5c5.974,0,10.834-4.859,10.834-10.832V47.167C260,41.193,255.14,36.333,249.166,36.333z
	 M14.444,188V65.222h14.444V188c0,3.982-3.24,7.223-7.222,7.223C17.685,195.223,14.444,191.982,14.444,188z M245.556,195.223H42.096
	c0.82-2.32,1.239-4.762,1.238-7.223V50.778h202.222V195.223z M63.194,151.889h75.833c2.992,0,5.417-2.426,5.417-5.416V70.639
	c0-2.991-2.425-5.417-5.417-5.417H63.194c-2.991,0-5.417,2.425-5.417,5.417v75.834C57.778,149.463,60.203,151.889,63.194,151.889z
	 M72.222,79.667H130v57.778H72.222V79.667z M57.778,175.361v-3.611c0-2.991,2.425-5.416,5.417-5.416h75.833
	c2.992,0,5.417,2.425,5.417,5.416v3.611c0,2.991-2.425,5.416-5.417,5.416H63.194C60.203,180.777,57.778,178.353,57.778,175.361z
	 M158.889,175.361v-3.611c0-2.991,2.426-5.416,5.417-5.416h61.389c2.991,0,5.417,2.425,5.417,5.416v3.611
	c0,2.991-2.426,5.416-5.417,5.416h-61.389C161.314,180.777,158.889,178.353,158.889,175.361z M158.889,146.473v-3.611
	c0-2.992,2.426-5.417,5.417-5.417h61.389c2.991,0,5.417,2.425,5.417,5.417v3.611c0,2.99-2.426,5.416-5.417,5.416h-61.389
	C161.314,151.889,158.889,149.463,158.889,146.473z M158.889,88.694v-3.611c0-2.992,2.426-5.417,5.417-5.417h61.389
	c2.991,0,5.417,2.425,5.417,5.417v3.611c0,2.992-2.426,5.417-5.417,5.417h-61.389C161.314,94.111,158.889,91.686,158.889,88.694z
	 M158.889,117.583v-3.611c0-2.991,2.426-5.417,5.417-5.417h61.389c2.991,0,5.417,2.425,5.417,5.417v3.611
	c0,2.991-2.426,5.417-5.417,5.417h-61.389C161.314,123,158.889,120.575,158.889,117.583z"/>
</svg>
