<?xml version="1.0" encoding="utf-8"?>
<!-- Generator: Adobe Illustrator 16.0.0, SVG Export Plug-In . SVG Version: 6.00 Build 0)  -->
<!DOCTYPE svg PUBLIC "-//W3C//DTD SVG 1.1//EN" "http://www.w3.org/Graphics/SVG/1.1/DTD/svg11.dtd">
<svg version="1.1" id="Layer_1" xmlns="http://www.w3.org/2000/svg" xmlns:xlink="http://www.w3.org/1999/xlink" x="0px" y="0px"
	 width="120px" height="120.001px" viewBox="0 0 120 120.001" enable-background="new 0 0 120 120.001" xml:space="preserve">
<path fill="#B2B2B2" d="M60,0C26.85,0,0,26.85,0,60c0,33.15,26.85,60.001,60,60.001c33.149,0,60-26.851,60-60.001
	C120,26.85,93.149,0,60,0z M59.1,21c11.099,0,20.25,8.7,20.25,19.5c0,10.8-9,19.5-20.25,19.5C48,60,39,51.3,39,40.5
	C39,29.7,48,21,59.1,21L59.1,21z M94.499,93.3c0,5.551-11.699,5.701-26.1,5.701H51.6c-14.401,0-26.1,0-26.1-5.701V91.65
	c0-13.95,11.699-25.199,26.1-25.199h16.799c14.4,0,26.1,11.249,26.1,25.199V93.3z"/>
</svg>
